{
  "accessors": [
    {
      "bufferView": 2,
      "componentType": 5126,
      "count": 23,
      "max": [
        -0.572314977645874,
        1.9202150106430054,
        0.24559900164604187
      ],
      "min": [
        -4.236211776733398,
        -1.9202150106430054,
        -1.7248159646987915
      ],
      "type": "VEC3"
    },
    {
      "bufferView": 2,
      "byteOffset": 276,
      "componentType": 5126,
      "count": 23,
      "max": [
        1.0,
        0.9984920024871826,
        0.6483400464057922
      ],
      "min": [
        -0.2330121546983719,
        -0.9984920024871826,
        -0.9990307688713074
      ],
      "type": "VEC3"
    },
    {
      "bufferView": 1,
      "componentType": 5126,
      "count": 23,
      "max": [
        0.0,
        0.0
      ],
      "min": [
        0.0,
        0.0
      ],
      "type": "VEC2"
    },
    {
      "bufferView": 0,
      "componentType": 5125,
      "count": 36,
      "type": "SCALAR"
    },
    {
      "bufferView": 2,
      "byteOffset": 552,
      "componentType": 5126,
      "count": 5541,
      "max": [
        4.794450759887695,
        2.275470018386841,
        2.3895599842071533
      ],
      "min": [
        -4.385556221008301,
        -2.267961025238037,
        -2.4955859184265137
      ],
      "type": "VEC3"
    },
    {
      "bufferView": 2,
      "byteOffset": 67044,
      "componentType": 5126,
      "count": 5541,
      "max": [
        1.0,
        1.0,
        1.0
      ],
      "min": [
        -1.0,
        -1.0,
        -1.0
      ],
      "type": "VEC3"
    },
    {
      "bufferView": 1,
      "byteOffset": 184,
      "componentType": 5126,
      "count": 5541,
      "max": [
        1.2156529426574707,
        0.7337689995765686
      ],
      "min": [
        -0.9970399737358093,
        -3.1513819694519043
      ],
      "type": "VEC2"
    },
    {
      "bufferView": 0,
      "byteOffset": 144,
      "componentType": 5125,
      "count": 11196,
      "type": "SCALAR"
    }
  ],
  "asset": {
    "extras": {
      "author": "own.guest (https://sketchfab.com/own.guest)",
      "license": "CC-BY-4.0 (http://creativecommons.org/licenses/by/4.0/)",
      "source": "https://sketchfab.com/3d-models/mitsubishi-minicab-2005-0203f5e1bda44380914a2280e4d99689",
      "title": "Mitsubishi Minicab 2005"
    },
    "generator": "Sketchfab-12.65.0",
    "version": "2.0"
  },
  "bufferViews": [
    {
      "buffer": 0,
      "byteLength": 44928,
      "name": "floatBufferViews",
      "target": 34963
    },
    {
      "buffer": 0,
      "byteLength": 44512,
      "byteOffset": 44928,
      "byteStride": 8,
      "name": "floatBufferViews",
      "target": 34962
    },
    {
      "buffer": 0,
      "byteLength": 133536,
      "byteOffset": 89440,
      "byteStride": 12,
      "name": "floatBufferViews",
      "target": 34962
    }
  ],
  "buffers": [
    {
      "byteLength": 222976,
      "uri": "scene.bin"
    }
  ],
  "images": [
    {
      "uri": "textures/standard_baseColor.png"
    }
  ],
  "materials": [
    {
      "doubleSided": true,
      "name": "standard",
      "pbrMetallicRoughness": {
        "baseColorTexture": {
          "index": 0
        },
        "metallicFactor": 0.0,
        "roughnessFactor": 0.6
      }
    }
  ],
  "meshes": [
    {
      "name": "Object_0",
      "primitives": [
        {
          "attributes": {
            "NORMAL": 1,
            "POSITION": 0,
            "TEXCOORD_0": 2
          },
          "indices": 3,
          "material": 0,
          "mode": 4
        }
      ]
    },
    {
      "name": "Object_1",
      "primitives": [
        {
          "attributes": {
            "NORMAL": 5,
            "POSITION": 4,
            "TEXCOORD_0": 6
          },
          "indices": 7,
          "material": 0,
          "mode": 4
        }
      ]
    }
  ],
  "nodes": [
    {
      "children": [
        1
      ],
      "matrix": [
        1.0,
        0.0,
        0.0,
        0.0,
        0.0,
        2.220446049250313e-16,
        -1.0,
        0.0,
        0.0,
        1.0,
        2.220446049250313e-16,
        0.0,
        0.0,
        0.0,
        0.0,
        1.0
      ],
      "name": "Sketchfab_model"
    },
    {
      "children": [
        2,
        3
      ],
      "name": "keytruck.obj.cleaner.materialmerger.gles"
    },
    {
      "mesh": 0,
      "name": "Object_2"
    },
    {
      "mesh": 1,
      "name": "Object_3"
    }
  ],
  "samplers": [
    {
      "magFilter": 9729,
      "minFilter": 9987,
      "wrapS": 10497,
      "wrapT": 10497
    }
  ],
  "scene": 0,
  "scenes": [
    {
      "name": "Sketchfab_Scene",
      "nodes": [
        0
      ]
    }
  ],
  "textures": [
    {
      "sampler": 0,
      "source": 0
    }
  ]
}
