{
  "accessors": [
    {
      "bufferView": 2,
      "componentType": 5126,
      "count": 41,
      "max": [
        0.4312889873981476,
        6.3155198097229,
        0.7932189702987671
      ],
      "min": [
        -0.4388889968395233,
        6.308534145355225,
        0.20013700425624847
      ],
      "type": "VEC3"
    },
    {
      "bufferView": 2,
      "byteOffset": 492,
      "componentType": 5126,
      "count": 41,
      "max": [
        0.15737195312976837,
        1.0,
        0.30113887786865234
      ],
      "min": [
        -0.1582789570093155,
        0.9535796642303467,
        -0.2673359811306
      ],
      "type": "VEC3"
    },
    {
      "bufferView": 3,
      "componentType": 5126,
      "count": 41,
      "max": [
        1.0,
        0.15836891531944275,
        0.011137878522276878,
        1.0
      ],
      "min": [
        0.9873800277709961,
        -0.15746721625328064,
        -0.003628143109381199,
        1.0
      ],
      "type": "VEC4"
    },
    {
      "bufferView": 1,
      "componentType": 5126,
      "count": 41,
      "max": [
        0.9378790259361267,
        0.5518590211868286
      ],
      "min": [
        0.8475030064582825,
        0.4902620017528534
      ],
      "type": "VEC2"
    },
    {
      "bufferView": 0,
      "componentType": 5125,
      "count": 138,
      "type": "SCALAR"
    },
    {
      "bufferView": 2,
      "byteOffset": 984,
      "componentType": 5126,
      "count": 724,
      "max": [
        1.3804219961166382,
        6.432943820953369,
        1.3804219961166382
      ],
      "min": [
        -1.3804219961166382,
        0.11513400077819824,
        -1.3804219961166382
      ],
      "type": "VEC3"
    },
    {
      "bufferView": 2,
      "byteOffset": 9672,
      "componentType": 5126,
      "count": 724,
      "max": [
        0.9999977350234985,
        1.0,
        0.9999977350234985
      ],
      "min": [
        -0.9999977350234985,
        -1.0,
        -0.9999977350234985
      ],
      "type": "VEC3"
    },
    {
      "bufferView": 3,
      "byteOffset": 656,
      "componentType": 5126,
      "count": 724,
      "max": [
        1.0,
        0.9942319393157959,
        1.0,
        1.0
      ],
      "min": [
        -1.0,
        -0.9999646544456482,
        -1.0,
        1.0
      ],
      "type": "VEC4"
    },
    {
      "bufferView": 1,
      "byteOffset": 328,
      "componentType": 5126,
      "count": 724,
      "max": [
        0.9519760012626648,
        0.9633709788322449
      ],
      "min": [
        0.029895000159740448,
        0.026729999110102654
      ],
      "type": "VEC2"
    },
    {
      "bufferView": 0,
      "byteOffset": 552,
      "componentType": 5125,
      "count": 2718,
      "type": "SCALAR"
    },
    {
      "bufferView": 2,
      "byteOffset": 18360,
      "componentType": 5126,
      "count": 260,
      "max": [
        0.5,
        0.5000079870223999,
        0.5627359747886658
      ],
      "min": [
        -0.5,
        -0.5,
        -0.5531730055809021
      ],
      "type": "VEC3"
    },
    {
      "bufferView": 2,
      "byteOffset": 21480,
      "componentType": 5126,
      "count": 260,
      "max": [
        0.9925132393836975,
        1.0,
        0.99950110912323
      ],
      "min": [
        -0.9925132393836975,
        -1.0,
        -0.9987727403640747
      ],
      "type": "VEC3"
    },
    {
      "bufferView": 3,
      "byteOffset": 12240,
      "componentType": 5126,
      "count": 260,
      "max": [
        1.0,
        0.9925132393836975,
        0.8241937756538391,
        1.0
      ],
      "min": [
        -0.26584020256996155,
        -0.9952926635742188,
        -0.8241939544677734,
        1.0
      ],
      "type": "VEC4"
    },
    {
      "bufferView": 1,
      "byteOffset": 6120,
      "componentType": 5126,
      "count": 260,
      "max": [
        0.9542639851570129,
        0.9402940273284912
      ],
      "min": [
        0.07126499712467194,
        0.008297000080347061
      ],
      "type": "VEC2"
    },
    {
      "bufferView": 0,
      "byteOffset": 11424,
      "componentType": 5125,
      "count": 864,
      "type": "SCALAR"
    }
  ],
  "asset": {
    "extras": {
      "author": "Nel_ame (https://sketchfab.com/Nel_ame)",
      "license": "CC-BY-4.0 (http://creativecommons.org/licenses/by/4.0/)",
      "source": "https://sketchfab.com/3d-models/piwo-tesco-57bf206367214ff48d20e179c539e953",
      "title": "Piwo TESCO"
    },
    "generator": "Sketchfab-16.59.0",
    "version": "2.0"
  },
  "bufferViews": [
    {
      "buffer": 0,
      "byteLength": 14880,
      "name": "floatBufferViews",
      "target": 34963
    },
    {
      "buffer": 0,
      "byteLength": 8200,
      "byteOffset": 14880,
      "byteStride": 8,
      "name": "floatBufferViews",
      "target": 34962
    },
    {
      "buffer": 0,
      "byteLength": 24600,
      "byteOffset": 23080,
      "byteStride": 12,
      "name": "floatBufferViews",
      "target": 34962
    },
    {
      "buffer": 0,
      "byteLength": 16400,
      "byteOffset": 47680,
      "byteStride": 16,
      "name": "floatBufferViews",
      "target": 34962
    }
  ],
  "buffers": [
    {
      "byteLength": 64080,
      "uri": "scene.bin"
    }
  ],
  "images": [
    {
      "uri": "textures/clip_mat_baseColor.jpeg"
    },
    {
      "uri": "textures/clip_mat_metallicRoughness.png"
    },
    {
      "uri": "textures/clip_mat_normal.png"
    },
    {
      "uri": "textures/can_mat_baseColor.jpeg"
    },
    {
      "uri": "textures/can_mat_metallicRoughness.png"
    },
    {
      "uri": "textures/can_mat_normal.png"
    },
    {
      "uri": "textures/canlid_mat_baseColor.jpeg"
    },
    {
      "uri": "textures/canlid_mat_metallicRoughness.png"
    },
    {
      "uri": "textures/canlid_mat_normal.png"
    }
  ],
  "materials": [
    {
      "doubleSided": true,
      "name": "clip_mat",
      "normalTexture": {
        "index": 2
      },
      "occlusionTexture": {
        "index": 1
      },
      "pbrMetallicRoughness": {
        "baseColorTexture": {
          "index": 0
        },
        "metallicRoughnessTexture": {
          "index": 1
        }
      }
    },
    {
      "doubleSided": true,
      "name": "can_mat",
      "normalTexture": {
        "index": 5
      },
      "occlusionTexture": {
        "index": 4
      },
      "pbrMetallicRoughness": {
        "baseColorTexture": {
          "index": 3
        },
        "metallicRoughnessTexture": {
          "index": 4
        }
      }
    },
    {
      "doubleSided": true,
      "name": "canlid_mat",
      "normalTexture": {
        "index": 8
      },
      "occlusionTexture": {
        "index": 7
      },
      "pbrMetallicRoughness": {
        "baseColorTexture": {
          "index": 6
        },
        "metallicRoughnessTexture": {
          "index": 7
        }
      }
    }
  ],
  "meshes": [
    {
      "name": "defaultMaterial",
      "primitives": [
        {
          "attributes": {
            "NORMAL": 1,
            "POSITION": 0,
            "TANGENT": 2,
            "TEXCOORD_0": 3
          },
          "indices": 4,
          "material": 2,
          "mode": 4
        }
      ]
    },
    {
      "name": "defaultMaterial",
      "primitives": [
        {
          "attributes": {
            "NORMAL": 6,
            "POSITION": 5,
            "TANGENT": 7,
            "TEXCOORD_0": 8
          },
          "indices": 9,
          "material": 1,
          "mode": 4
        }
      ]
    },
    {
      "name": "defaultMaterial",
      "primitives": [
        {
          "attributes": {
            "NORMAL": 11,
            "POSITION": 10,
            "TANGENT": 12,
            "TEXCOORD_0": 13
          },
          "indices": 14,
          "material": 0,
          "mode": 4
        }
      ]
    }
  ],
  "nodes": [
    {
      "children": [
        1
      ],
      "matrix": [
        1.0,
        0.0,
        0.0,
        0.0,
        0.0,
        2.220446049250313e-16,
        -1.0,
        0.0,
        0.0,
        1.0,
        2.220446049250313e-16,
        0.0,
        0.0,
        0.0,
        0.0,
        1.0
      ],
      "name": "Sketchfab_model"
    },
    {
      "children": [
        2,
        4,
        6
      ],
      "matrix": [
        1.0,
        0.0,
        0.0,
        0.0,
        0.0,
        -4.371139006309477e-08,
        0.999999999999999,
        0.0,
        0.0,
        -0.999999999999999,
        -4.371139006309477e-08,
        0.0,
        0.0,
        0.0,
        0.0,
        1.0
      ],
      "name": "Collada visual scene group"
    },
    {
      "children": [
        3
      ],
      "name": "opening"
    },
    {
      "mesh": 0,
      "name": "defaultMaterial"
    },
    {
      "children": [
        5
      ],
      "name": "can"
    },
    {
      "mesh": 1,
      "name": "defaultMaterial"
    },
    {
      "children": [
        7
      ],
      "matrix": [
        0.589636,
        0.0,
        0.0,
        0.0,
        0.0,
        0.058896,
        0.0,
        0.0,
        0.0,
        0.0,
        1.0,
        0.0,
        0.0,
        6.32999,
        -0.176421,
        1.0
      ],
      "name": "clip"
    },
    {
      "mesh": 2,
      "name": "defaultMaterial"
    }
  ],
  "samplers": [
    {
      "magFilter": 9729,
      "minFilter": 9987,
      "wrapS": 10497,
      "wrapT": 10497
    }
  ],
  "scene": 0,
  "scenes": [
    {
      "name": "Sketchfab_Scene",
      "nodes": [
        0
      ]
    }
  ],
  "textures": [
    {
      "sampler": 0,
      "source": 0
    },
    {
      "sampler": 0,
      "source": 1
    },
    {
      "sampler": 0,
      "source": 2
    },
    {
      "sampler": 0,
      "source": 3
    },
    {
      "sampler": 0,
      "source": 4
    },
    {
      "sampler": 0,
      "source": 5
    },
    {
      "sampler": 0,
      "source": 6
    },
    {
      "sampler": 0,
      "source": 7
    },
    {
      "sampler": 0,
      "source": 8
    }
  ]
}
